<svg width="279" height="283" viewBox="0 0 279 283" fill="none" xmlns="http://www.w3.org/2000/svg">
<path fill-rule="evenodd" clip-rule="evenodd" d="M176.872 134.454L213.658 199.354L139.259 141.083L176.872 134.454ZM204.119 58.2706L136.683 102.978L139.259 141.083L64.8601 82.8123L101.646 147.711L139.259 141.083L74.399 223.895L141.835 179.188L139.259 141.083L204.119 58.2706Z" fill="#FF4000"/>
<path d="M141.835 179.188L213.658 199.354L139.259 141.083L141.835 179.188Z" fill="white"/>
<path d="M176.872 134.454L204.119 58.2706L139.259 141.083L176.872 134.454Z" fill="white"/>
<path d="M101.646 147.711L74.399 223.895L139.259 141.083L101.646 147.711Z" fill="white"/>
<path d="M136.683 102.978L64.8601 82.8123L139.259 141.083L136.683 102.978Z" fill="white"/>
<path d="M139.67 139.747L137.201 103.234L201.821 60.3942L139.67 139.747ZM140.457 140.364L202.608 61.0108L176.499 134.012L140.457 140.364ZM140.45 141.381L176.611 135.008L211.977 197.402L140.45 141.381ZM139.834 142.168L211.36 198.189L142.31 178.802L139.834 142.168ZM138.848 142.418L141.317 178.932L76.6973 221.772L138.848 142.418ZM138.061 141.802L75.91 221.155L102.019 148.153L138.061 141.802ZM138.068 140.785L101.907 147.158L66.5411 84.764L138.068 140.785ZM138.685 139.998L67.1577 83.9767L136.208 103.364L138.685 139.998Z" stroke="black"/>
<path fill-rule="evenodd" clip-rule="evenodd" d="M110.546 104.684L138.5 16V137.5L110.546 104.684ZM35 137.5L110.546 170.316L138.5 137.5V259L166.454 170.316L138.5 137.5H242L166.454 104.684L138.5 137.5H35Z" fill="#FF4000"/>
<path d="M166.454 104.684L138.5 16V137.5L166.454 104.684Z" fill="white"/>
<path d="M110.546 104.684L35 137.5H138.5L110.546 104.684Z" fill="white"/>
<path d="M166.454 170.316L242 137.5H138.5L166.454 170.316Z" fill="white"/>
<path d="M110.546 170.316L138.5 259V137.5L110.546 170.316Z" fill="white"/>
<path d="M111.106 104.57L138 19.2494V136.142L111.106 104.57ZM110.405 105.29L137.417 137H37.406L110.405 105.29ZM110.405 169.71L37.406 138H137.417L110.405 169.71ZM111.106 170.43L138 138.858V255.751L111.106 170.43ZM165.894 170.43L139 255.751V138.858L165.894 170.43ZM166.595 169.71L139.583 138H239.594L166.595 169.71ZM166.595 105.29L239.594 137H139.583L166.595 105.29ZM165.894 104.57L139 136.142V19.2494L165.894 104.57Z" stroke="black"/>
</svg>
